<svg width="60" height="60" viewBox="0 0 60 60" fill="none" xmlns="http://www.w3.org/2000/svg">
<g clip-path="url(#clip0)">
<path d="M5.058 15.4435L5.7323 20.935L3.14375 21.2528C1.92453 21.4025 1.05758 22.5122 1.20723 23.7315C1.35687 24.9507 2.46664 25.8176 3.68585 25.668L6.2744 25.3502L6.55038 27.5978C7.20721 32.9469 12.0759 36.7507 17.425 36.094C22.7741 35.4372 26.5779 30.5685 25.9212 25.2194L24.4288 13.0651L5.058 15.4435Z" fill="#FFCCAA"/>
<path d="M21.3717 13.4405L22.8641 25.5947C23.4569 30.4234 20.4143 34.8597 15.8818 36.1605C16.3896 36.1783 16.9051 36.1579 17.4255 36.0939C22.7747 35.4371 26.5785 30.5684 25.9217 25.2193L24.4294 13.0649L21.3717 13.4405Z" fill="#F2A077"/>
<path d="M10.9662 23.4122C10.777 23.4122 10.5864 23.3514 10.4257 23.2259C10.0432 22.927 9.97539 22.3747 10.2742 21.9922C10.7045 21.4413 11.3238 21.0911 12.0176 21.0059C12.7116 20.921 13.397 21.1109 13.9478 21.5412C14.3303 21.84 14.3982 22.3924 14.0993 22.7748C13.8004 23.1573 13.2481 23.2252 12.8657 22.9263C12.6849 22.785 12.4595 22.7225 12.2318 22.7506C12.004 22.7786 11.8007 22.8935 11.6594 23.0745C11.4861 23.2961 11.2274 23.4122 10.9662 23.4122Z" fill="#475D6D"/>
<path d="M20.2611 22.2708C20.0719 22.2708 19.8813 22.2099 19.7206 22.0845C19.3381 21.7857 19.2703 21.2332 19.5692 20.8507C20.4578 19.7136 22.1058 19.5113 23.2428 20.3997C23.6253 20.6985 23.6932 21.2508 23.3943 21.6333C23.0955 22.0158 22.5431 22.0837 22.1607 21.7848C21.7874 21.493 21.2462 21.5595 20.9545 21.933C20.781 22.1549 20.5223 22.2708 20.2611 22.2708Z" fill="#475D6D"/>
<path d="M18.6269 30.8891C16.9348 31.0969 15.3947 29.8936 15.187 28.2015L15.0836 27.3599C15.0522 27.1037 15.2343 26.8705 15.4905 26.8391L20.6903 26.2007C20.9465 26.1693 21.1797 26.3514 21.2111 26.6075L21.3144 27.4492C21.5221 29.1413 20.3189 30.6814 18.6269 30.8891Z" fill="#CE3A4C"/>
<path d="M24.5613 14.1416L6.94397 16.3046C5.97495 16.4236 5.28718 17.3053 5.406 18.2731L5.73284 20.9349L3.14417 21.2527C2.9432 21.2775 2.75242 21.328 2.57277 21.4019L1.07746 9.22334C0.865935 7.50034 2.09101 5.93225 3.81402 5.72073L17.0588 4.09452C20.0796 3.72351 22.8559 2.32125 24.0486 0C31.1052 2.80605 29.2669 13.5637 24.5613 14.1416Z" fill="#47646D"/>
<path d="M24.0475 0C23.763 0.553593 23.3876 1.05433 22.9412 1.50187C27.642 5.32968 25.7285 13.998 21.5176 14.515L24.5602 14.1415C29.2658 13.5637 31.1041 2.80605 24.0475 0Z" fill="#315256"/>
<path d="M54.9428 39.2758L54.2685 44.7673L56.857 45.0851C58.0763 45.2347 58.9432 46.3445 58.7936 47.5637C58.6439 48.7829 57.5341 49.6499 56.3149 49.5002L53.7264 49.1824L53.4504 51.4301C52.7936 56.7792 47.9249 60.583 42.5758 59.9263C37.2266 59.2694 33.4229 54.4008 34.0796 49.0516L35.572 36.8973L54.9428 39.2758Z" fill="#FFCCAA"/>
<path d="M56.8562 45.0851L54.2677 44.7673L54.942 39.2758L35.5713 36.8973L52.072 38.9234L51.3977 44.4149L50.8556 48.83L50.5796 51.0777C49.9549 56.1656 46.1003 59.9238 41.8042 59.7975C42.0577 59.8492 42.3139 59.8942 42.5751 59.9263C47.9242 60.5831 52.7929 56.7792 53.4497 51.4301L53.7257 49.1824L56.3143 49.5002C57.5335 49.65 58.6431 48.7829 58.7929 47.5637C58.9424 46.3445 58.0755 45.2347 56.8562 45.0851Z" fill="#F2A077"/>
<path d="M49.0333 47.2444C48.772 47.2444 48.5135 47.1284 48.34 46.9066C48.0483 46.5332 47.5073 46.4668 47.1338 46.7584C46.7513 47.0572 46.1989 46.9894 45.9002 46.6069C45.6014 46.2244 45.6692 45.6721 46.0517 45.3733C47.189 44.4849 48.8369 44.6873 49.7253 45.8243C50.0241 46.2068 49.9563 46.7593 49.5739 47.0581C49.4132 47.1835 49.2226 47.2444 49.0333 47.2444Z" fill="#475D6D"/>
<path d="M39.7385 46.103C39.4772 46.103 39.2186 45.987 39.0452 45.7652C38.9039 45.5844 38.7007 45.4693 38.4728 45.4413C38.245 45.4132 38.0199 45.4756 37.8389 45.6171C37.4563 45.9159 36.904 45.848 36.6053 45.4655C36.3064 45.083 36.3743 44.5308 36.7568 44.2319C37.3076 43.8016 37.993 43.6115 38.687 43.6966C39.3809 43.7818 40.0001 44.1321 40.4304 44.683C40.7292 45.0655 40.6614 45.6178 40.2789 45.9166C40.1184 46.0422 39.9278 46.103 39.7385 46.103Z" fill="#475D6D"/>
<path d="M41.374 54.7212C43.066 54.929 44.6061 53.7257 44.8139 52.0337L44.9173 51.192C44.9487 50.9359 44.7665 50.7027 44.5104 50.6713L39.3105 50.0328C39.0544 50.0014 38.8212 50.1835 38.7898 50.4397L38.6864 51.2813C38.4787 52.9734 39.6819 54.5135 41.374 54.7212Z" fill="#CE3A4C"/>
<path d="M56.1868 29.553L43.7451 28.0254C43.0264 27.9372 42.379 27.5511 41.9558 26.9636C40.794 25.3513 38.9516 24.237 36.787 24.0796C33.2078 23.8193 29.9743 26.3765 29.3995 29.9187C28.7612 33.8526 31.5208 37.4929 35.4393 37.9739L53.0567 40.1371C54.025 40.256 54.7136 41.1373 54.5947 42.1056L54.2678 44.7674L56.8565 45.0852C57.0575 45.1099 57.2482 45.1604 57.4279 45.2344L58.9232 33.0557C59.1348 31.3327 57.9096 29.7646 56.1868 29.553Z" fill="#BE6351"/>
<path d="M56.1867 29.5528L53.9355 29.2764C55.6584 29.4879 56.8836 31.0561 56.6721 32.779L55.1863 44.8799L56.8565 45.0849C57.0574 45.1097 57.2482 45.1602 57.4279 45.2341L58.9232 33.0554C59.1348 31.3325 57.9096 29.7645 56.1867 29.5528Z" fill="#AA473A"/>
<path d="M46.1743 10.6906C45.6889 10.6906 45.2954 10.2971 45.2954 9.8117V7.59534C45.2954 7.10995 45.6889 6.71643 46.1743 6.71643C46.6597 6.71643 47.0532 7.10995 47.0532 7.59534V9.8117C47.0532 10.2971 46.6597 10.6906 46.1743 10.6906Z" fill="#B1B7B7"/>
<path d="M46.1743 17.5038C45.6889 17.5038 45.2954 17.1103 45.2954 16.6249V14.4086C45.2954 13.9232 45.6889 13.5297 46.1743 13.5297C46.6597 13.5297 47.0532 13.9232 47.0532 14.4086V16.6249C47.0532 17.1103 46.6597 17.5038 46.1743 17.5038Z" fill="#B1B7B7"/>
<path d="M50.6891 12.989H48.4728C47.9874 12.989 47.5939 12.5955 47.5939 12.1101C47.5939 11.6247 47.9874 11.2312 48.4728 11.2312H50.6891C51.1745 11.2312 51.568 11.6247 51.568 12.1101C51.568 12.5955 51.1745 12.989 50.6891 12.989Z" fill="#B1B7B7"/>
<path d="M43.8765 12.989H41.6602C41.1748 12.989 40.7812 12.5955 40.7812 12.1101C40.7812 11.6247 41.1748 11.2312 41.6602 11.2312H43.8765C44.3619 11.2312 44.7554 11.6247 44.7554 12.1101C44.7554 12.5955 44.3619 12.989 43.8765 12.989Z" fill="#B1B7B7"/>
<path d="M13.8241 46.4703C13.3387 46.4703 12.9452 46.0767 12.9452 45.5914V43.375C12.9452 42.8896 13.3387 42.4961 13.8241 42.4961C14.3094 42.4961 14.703 42.8896 14.703 43.375V45.5914C14.703 46.0767 14.3094 46.4703 13.8241 46.4703Z" fill="#B1B7B7"/>
<path d="M13.8241 53.2836C13.3387 53.2836 12.9452 52.8901 12.9452 52.4047V50.1884C12.9452 49.703 13.3387 49.3095 13.8241 49.3095C14.3094 49.3095 14.703 49.703 14.703 50.1884V52.4047C14.703 52.8901 14.3094 53.2836 13.8241 53.2836Z" fill="#B1B7B7"/>
<path d="M18.3395 48.7688H16.1231C15.6377 48.7688 15.2442 48.3753 15.2442 47.8899C15.2442 47.4045 15.6377 47.011 16.1231 47.011H18.3395C18.8248 47.011 19.2184 47.4045 19.2184 47.8899C19.2184 48.3753 18.8248 48.7688 18.3395 48.7688Z" fill="#B1B7B7"/>
<path d="M11.5259 48.7688H9.30957C8.82418 48.7688 8.43066 48.3753 8.43066 47.8899C8.43066 47.4045 8.82418 47.011 9.30957 47.011H11.5259C12.0113 47.011 12.4048 47.4045 12.4048 47.8899C12.4048 48.3753 12.0113 48.7688 11.5259 48.7688Z" fill="#B1B7B7"/>
</g>
<defs>
<clipPath id="clip0">
<rect width="60" height="60" fill="white"/>
</clipPath>
</defs>
</svg>
