<svg width="181" height="46" viewBox="0 0 181 46" fill="none" xmlns="http://www.w3.org/2000/svg">
<path d="M93.3852 8.16493H98.3581V23.4138H94.6182V13.8111L91.9468 21.1471H88.8234L86.152 14.1099V23.4138H82.4121V8.16493H87.385L90.457 16.6136L93.3852 8.16493Z" fill="white"/>
<path d="M107.198 23.6199C105.855 23.6199 104.691 23.3451 103.704 22.7956C102.718 22.2461 101.951 21.3909 101.403 20.2301C100.855 19.0624 100.581 17.5821 100.581 15.7894C100.581 13.9966 100.855 12.5198 101.403 11.3589C101.951 10.1912 102.718 9.33263 103.704 8.78313C104.691 8.23362 105.855 7.95886 107.198 7.95886C108.54 7.95886 109.704 8.23362 110.691 8.78313C111.677 9.33263 112.444 10.1912 112.992 11.3589C113.54 12.5198 113.814 13.9966 113.814 15.7894C113.814 17.5821 113.54 19.0624 112.992 20.2301C112.444 21.3909 111.677 22.2461 110.691 22.7956C109.704 23.3451 108.54 23.6199 107.198 23.6199ZM107.198 20.2816C108.019 20.2816 108.636 19.945 109.047 19.2719C109.458 18.5919 109.663 17.4585 109.663 15.8718C109.663 14.7453 109.567 13.8489 109.376 13.1826C109.191 12.5095 108.917 12.0287 108.554 11.7402C108.198 11.4448 107.745 11.2971 107.198 11.2971C106.376 11.2971 105.759 11.6371 105.348 12.3172C104.937 12.9903 104.732 14.1202 104.732 15.7069C104.732 16.8334 104.824 17.7332 105.009 18.4064C105.201 19.0727 105.475 19.5535 105.831 19.8489C106.194 20.1373 106.65 20.2816 107.198 20.2816Z" fill="white"/>
<path d="M124.607 8.16493H128.368V23.4138H124.361L119.758 14.9342V23.4138H115.997V8.16493H120.004L124.607 16.6445V8.16493Z" fill="white"/>
<path d="M135.096 23.6199C134.459 23.6199 133.785 23.5615 133.072 23.4447C132.36 23.3348 131.733 23.1802 131.192 22.9811V19.6222C132.521 20.0343 133.788 20.2404 134.993 20.2404C135.713 20.2404 136.233 20.1408 136.555 19.9416C136.884 19.7355 137.048 19.4505 137.048 19.0864C137.048 18.8941 137 18.7258 136.905 18.5815C136.815 18.4373 136.655 18.2999 136.422 18.1694C136.189 18.0389 135.85 17.8981 135.404 17.747L134.172 17.3349C133.124 16.9777 132.284 16.4282 131.654 15.6863C131.031 14.9445 130.719 14.0035 130.719 12.8632C130.719 11.8398 130.949 10.964 131.408 10.2359C131.867 9.50092 132.558 8.93767 133.483 8.54615C134.408 8.15462 135.555 7.95886 136.925 7.95886C137.555 7.95886 138.155 7.99664 138.723 8.0722C139.298 8.14089 139.809 8.24049 140.254 8.37099V11.7299C139.843 11.6062 139.384 11.5101 138.877 11.4414C138.37 11.3727 137.863 11.3383 137.357 11.3383C135.63 11.3383 134.767 11.7436 134.767 12.5541C134.767 12.7327 134.805 12.8873 134.88 13.0178C134.956 13.1414 135.093 13.2616 135.291 13.3784C135.49 13.4952 135.781 13.6188 136.165 13.7493L137.398 14.1614C138.59 14.553 139.504 15.1128 140.141 15.8409C140.778 16.569 141.097 17.5272 141.097 18.7155C141.097 19.7115 140.86 20.5804 140.388 21.3222C139.915 22.0572 139.227 22.6239 138.322 23.0223C137.425 23.4207 136.35 23.6199 135.096 23.6199Z" fill="white"/>
<path d="M146.246 23.4138V11.7299H142.219V8.16493H154.322V11.7299H150.295V23.4138H146.246Z" fill="white"/>
<path d="M160.462 19.9725H166.585V23.4138H156.496V8.16493H166.482V11.6062H160.462V13.9142H165.414V17.3555H160.462V19.9725Z" fill="white"/>
<path d="M176.725 23.4138L173.674 18.2415C173.222 18.2278 172.924 18.2209 172.78 18.2209V23.4138H168.814V8.47403C170.369 8.13058 171.903 7.95886 173.417 7.95886C175.588 7.95886 177.211 8.38473 178.287 9.23647C179.369 10.0882 179.91 11.3796 179.91 13.1105C179.91 14.134 179.691 15.0166 179.253 15.7584C178.814 16.4934 178.194 17.0704 177.393 17.4894L180.999 23.4138H176.725ZM172.78 15.0269C173.15 15.0681 173.526 15.0887 173.91 15.0887C174.636 15.0887 175.184 14.9376 175.554 14.6354C175.924 14.3263 176.109 13.818 176.109 13.1105C176.109 12.4236 175.924 11.9119 175.554 11.5753C175.191 11.2387 174.67 11.0705 173.992 11.0705C173.547 11.0705 173.143 11.1048 172.78 11.1735V15.0269Z" fill="white"/>
<path d="M82.4121 29.0222C83.2221 28.8475 84.0059 28.7602 84.7636 28.7602C85.9356 28.7602 86.8108 29.0073 87.3894 29.5015C87.9679 29.992 88.2572 30.7575 88.2572 31.798C88.2572 32.7864 87.9735 33.5389 87.4062 34.0554C86.8388 34.5682 86.0177 34.8246 84.9427 34.8246C84.8457 34.8246 84.7188 34.8209 84.562 34.8135L84.3549 34.8079V37.1155H82.4121V29.0222ZM84.9651 33.2639C85.4466 33.2639 85.8012 33.1525 86.0289 32.9295C86.2566 32.7028 86.3704 32.3331 86.3704 31.8203C86.3704 31.2963 86.2547 30.9155 86.0233 30.6776C85.7919 30.4398 85.4335 30.3209 84.9483 30.3209C84.7057 30.3209 84.5079 30.3376 84.3549 30.3711V33.2305C84.5452 33.2528 84.7486 33.2639 84.9651 33.2639Z" fill="white"/>
<path d="M95.697 37.227C94.9879 37.227 94.3739 37.0802 93.8551 36.7866C93.3363 36.4894 92.9332 36.0267 92.6458 35.3987C92.3584 34.767 92.2147 33.9644 92.2147 32.9908C92.2147 32.0172 92.3584 31.2164 92.6458 30.5885C92.9332 29.9567 93.3363 29.4941 93.8551 29.2006C94.3739 28.9033 94.9879 28.7546 95.697 28.7546C96.4062 28.7546 97.0202 28.9033 97.539 29.2006C98.0578 29.4941 98.4609 29.9567 98.7483 30.5885C99.0357 31.2164 99.1794 32.0172 99.1794 32.9908C99.1794 33.9644 99.0357 34.767 98.7483 35.3987C98.4609 36.0267 98.0578 36.4894 97.539 36.7866C97.0202 37.0802 96.4062 37.227 95.697 37.227ZM95.697 35.6161C96.0218 35.6161 96.2924 35.5344 96.5089 35.3709C96.7253 35.2037 96.8896 34.9305 97.0015 34.5515C97.1173 34.1688 97.1751 33.6615 97.1751 33.0298C97.1751 32.3721 97.1173 31.8482 97.0015 31.458C96.8896 31.0678 96.7253 30.7891 96.5089 30.6219C96.2924 30.451 96.0218 30.3655 95.697 30.3655C95.3723 30.3655 95.1017 30.4491 94.8852 30.6163C94.6688 30.7798 94.5027 31.0529 94.387 31.4357C94.275 31.8147 94.219 32.3201 94.219 32.9518C94.219 33.6095 94.275 34.1335 94.387 34.5236C94.5027 34.9138 94.6688 35.1944 94.8852 35.3653C95.1017 35.5325 95.3723 35.6161 95.697 35.6161Z" fill="white"/>
<path d="M105.275 37.227C104.94 37.227 104.585 37.1973 104.212 37.1378C103.838 37.0783 103.508 36.9947 103.221 36.887V35.2705C103.926 35.4898 104.596 35.5994 105.231 35.5994C106.056 35.5994 106.468 35.3374 106.468 34.8135C106.468 34.676 106.438 34.5589 106.378 34.4623C106.322 34.362 106.222 34.2691 106.076 34.1836C105.934 34.0982 105.733 34.0127 105.471 33.9272L104.856 33.721C104.281 33.5278 103.825 33.2342 103.489 32.8403C103.157 32.4427 102.991 31.9411 102.991 31.3354C102.991 30.8003 103.111 30.3395 103.35 29.953C103.592 29.5666 103.956 29.2712 104.441 29.0668C104.926 28.8587 105.526 28.7546 106.238 28.7546C106.563 28.7546 106.877 28.7751 107.179 28.816C107.485 28.8531 107.756 28.907 107.991 28.9776V30.594C107.767 30.5271 107.519 30.4751 107.246 30.438C106.977 30.4008 106.707 30.3822 106.434 30.3822C105.897 30.3822 105.514 30.4547 105.287 30.5996C105.059 30.7408 104.945 30.9359 104.945 31.1849C104.945 31.3149 104.969 31.4264 105.018 31.5193C105.07 31.6085 105.158 31.6902 105.281 31.7645C105.408 31.8389 105.587 31.9169 105.819 31.9987L106.44 32.2049C107.082 32.4167 107.573 32.7177 107.912 33.1079C108.256 33.4943 108.428 34.0034 108.428 34.6351C108.428 35.1628 108.303 35.6217 108.052 36.0119C107.806 36.402 107.446 36.703 106.972 36.9148C106.498 37.1229 105.932 37.227 105.275 37.227Z" fill="white"/>
<path d="M114.618 37.1155V30.5773H112.384V28.8661H118.811V30.5773H116.572V37.1155H114.618Z" fill="white"/>
<path d="M125.136 35.4601H128.535V37.1155H123.221V28.8661H128.479V30.5216H125.136V32.0767H127.907V33.7321H125.136V35.4601Z" fill="white"/>
<path d="M137.599 37.1155L135.813 34.2003L135.432 34.1948C135.369 34.1911 135.275 34.1892 135.152 34.1892V37.1155H133.237V29.0222C134.047 28.8475 134.846 28.7602 135.634 28.7602C136.779 28.7602 137.636 28.9869 138.203 29.4402C138.774 29.8899 139.06 30.5699 139.06 31.4803C139.064 32.0451 138.939 32.5282 138.685 32.9295C138.435 33.3308 138.078 33.6374 137.615 33.8492L139.665 37.1155H137.599ZM135.152 32.6508C135.376 32.6731 135.596 32.6842 135.813 32.6842C136.287 32.6842 136.639 32.5913 136.871 32.4055C137.106 32.216 137.224 31.9076 137.224 31.4803C137.224 30.6665 136.781 30.2596 135.897 30.2596C135.624 30.2596 135.376 30.28 135.152 30.3209V32.6508Z" fill="white"/>
<path d="M58.1186 3.04178C52.8673 9.83179 48.4458 6.69072 39.5377 5.09162C22.5929 2.04989 16.1746 14.3957 20.2823 22.0754C24.3753 29.7276 22.4784 32.9635 20.3059 36.6693L20.2823 36.7095C17.1971 41.9726 23.635 46.5564 30.2951 41.3307C38.639 34.7839 41.4012 49.0952 49.281 44.2943C55.1986 40.6889 56.8101 40.179 60.9752 42.7428C64.3053 44.7926 67.5714 45.4385 70.1581 38.7854C76.434 22.6432 72.9758 10.8567 70.1581 5.09162C67.3403 -0.673483 61.864 -1.80118 58.1186 3.04178Z" fill="#795AD1"/>
<path d="M17.6626 34.9579C16.8451 35.7776 15.7309 36.1417 14.7366 36.065C13.7424 35.9882 12.8722 35.4717 12.1105 34.8136C11.3495 34.1529 10.6992 33.3513 10.2985 32.2987C9.89775 31.2461 9.74592 29.945 10.1 28.8055C10.4542 27.6659 11.3114 26.6899 12.2323 25.7385C13.154 24.7844 14.1373 23.8543 15.2023 23.5736C16.2673 23.2929 17.4108 23.6579 18.1764 24.4742C18.9413 25.293 19.3279 26.5573 19.4892 27.8192C19.6484 29.0804 19.5798 30.3328 19.2882 31.5974C18.9967 32.8621 18.48 34.1383 17.6626 34.9579Z" fill="#795AD1"/>
<path d="M13.7746 20.0092C13.4487 20.425 12.9008 20.6805 12.3565 20.7426C11.8122 20.8046 11.274 20.6732 10.7745 20.4731C10.275 20.2718 9.81554 20.0019 9.45547 19.6047C9.09539 19.2075 8.83469 18.6842 8.86782 18.1799C8.90094 17.6756 9.22668 17.1914 9.58993 16.7114C9.95325 16.2302 10.3529 15.7531 10.8859 15.5367C11.4189 15.3203 12.083 15.3633 12.6064 15.6284C13.1298 15.8947 13.5114 16.3807 13.7718 16.8869C14.031 17.3931 14.1667 17.9171 14.1843 18.4672C14.202 19.0173 14.1005 19.5934 13.7746 20.0092Z" fill="#795AD1"/>
<path d="M4.47674 23.842C4.58586 24.2433 4.61922 24.6654 4.48854 25.0326C4.35727 25.3993 4.06196 25.711 3.7183 25.8958C3.37464 26.0806 2.98217 26.1392 2.5733 26.1514C2.16548 26.1634 1.74184 26.1296 1.4153 25.9252C1.08876 25.7207 0.858728 25.3452 0.762065 24.9413C0.664938 24.538 0.700131 24.1065 0.874861 23.7576C1.04959 23.4087 1.36176 23.1428 1.69928 22.9178C2.03681 22.6927 2.39851 22.5077 2.78592 22.4748C3.17274 22.4415 3.58572 22.5598 3.88395 22.8099C4.18264 23.0595 4.36763 23.4408 4.47674 23.842Z" fill="#795AD1"/>
<circle cx="36.2" cy="21.6903" r="10.783" fill="white"/>
<circle cx="41.3349" cy="22.4606" r="3.85106" fill="#252130"/>
<path d="M38.8963 20.1509C38.6975 20.3228 38.5883 20.5558 38.5406 20.8152C38.3801 21.6866 39.5269 21.8446 40.0459 21.1264C40.5359 20.4483 40.112 19.5136 39.351 19.8615C39.1906 19.9348 39.0364 20.0297 38.8963 20.1509Z" fill="white"/>
<circle cx="59.5633" cy="21.6903" r="10.783" fill="white"/>
<circle cx="64.9546" cy="22.4606" r="3.85106" fill="#252130"/>
<path d="M62.7732 20.1509C62.5745 20.3228 62.4653 20.5558 62.4175 20.8152C62.257 21.6866 63.4039 21.8446 63.9228 21.1264C64.4129 20.4483 63.9889 19.5136 63.228 19.8615C63.0675 19.9348 62.9133 20.0297 62.7732 20.1509Z" fill="white"/>
</svg>
